<svg xmlns="http://www.w3.org/2000/svg" xmlns:xlink="http://www.w3.org/1999/xlink" width="375" viewBox="0 0 375 375" height="375" version="1.0"><defs><clipPath id="a"><path d="M 162 184 L 240 184 L 240 249 L 162 249 Z M 162 184"/></clipPath><clipPath id="b"><path d="M 238.621094 217.714844 C 238.488281 218.480469 238.367188 219.242188 238.214844 219.992188 L 237.5625 222.1875 L 236.882812 224.332031 L 235.988281 226.363281 C 233.570312 231.71875 230.023438 236.035156 226.203125 239.265625 C 222.394531 242.539062 218.257812 244.734375 214.316406 246.082031 C 206.441406 248.960938 199.421875 248.226562 195.183594 246.875 C 194.109375 246.5 193.183594 246.144531 192.402344 245.75 C 191.636719 245.292969 191.019531 244.855469 190.550781 244.449219 C 189.617188 243.625 189.261719 242.914062 189.453125 242.292969 C 190.296875 239.398438 199.035156 241.339844 209.589844 235.355469 C 214.785156 232.550781 220.085938 227.417969 222.597656 220.746094 L 223.074219 219.496094 L 223.378906 218.183594 L 223.714844 216.875 L 223.867188 215.511719 C 224.183594 213.773438 224.140625 211.589844 223.949219 209.769531 C 223.53125 205.953125 222.199219 203.066406 220.027344 201.5625 C 219.476562 201.136719 218.726562 200.730469 218.066406 200.476562 C 217.496094 200.25 216.917969 200.097656 216.289062 200.046875 C 215.039062 199.886719 213.523438 200.210938 211.980469 200.839844 C 211.207031 201.144531 210.433594 201.59375 209.671875 202.058594 L 208.566406 202.84375 L 208.015625 203.308594 C 207.550781 203.695312 207.113281 204.171875 206.664062 204.621094 C 205.863281 205.707031 205.070312 206.785156 204.289062 207.863281 C 203.515625 209.082031 202.753906 210.289062 202.003906 211.488281 C 200.558594 213.765625 199.136719 216.019531 197.734375 218.234375 C 195.863281 214.902344 194.027344 211.640625 192.226562 208.441406 L 190.898438 206.132812 C 190.449219 205.402344 189.960938 204.824219 189.503906 204.171875 C 189.046875 203.523438 188.601562 202.933594 188.050781 202.394531 C 187.757812 202.082031 187.625 201.886719 187.390625 201.664062 C 185.726562 199.867188 183.925781 198.515625 182.3125 197.710938 C 180.605469 196.96875 179.597656 196.675781 177.707031 196.929688 C 175.992188 197.113281 174.355469 197.753906 172.933594 198.503906 C 167.089844 201.714844 165.484375 206.582031 163.960938 206.296875 C 163.242188 206.214844 162.527344 204.855469 162.710938 202.222656 C 162.894531 199.632812 164.132812 195.730469 167.691406 192.03125 C 169.46875 190.222656 171.816406 188.433594 174.863281 187.265625 C 176.355469 186.65625 178.023438 186.242188 180.085938 186.066406 C 182.066406 185.945312 184.039062 186.199219 185.949219 186.667969 C 189.71875 187.695312 193.101562 189.625 196.109375 192.074219 C 196.476562 192.355469 196.882812 192.742188 197.175781 192.988281 C 197.207031 192.988281 197.277344 193.027344 197.328125 193.046875 L 197.601562 193.160156 C 197.753906 193.21875 197.867188 193.269531 197.9375 193.261719 C 198.007812 193.007812 198.089844 192.753906 198.171875 192.5 C 198.183594 192.480469 198.171875 192.46875 198.203125 192.429688 L 199.097656 191.585938 C 199.757812 191.046875 200.398438 190.488281 201.097656 189.96875 C 202.511719 188.953125 204.015625 187.988281 205.691406 187.195312 C 209.011719 185.621094 212.976562 184.492188 217.292969 184.777344 C 219.4375 184.890625 221.621094 185.367188 223.683594 186.160156 C 225.65625 186.929688 227.433594 187.875 229.171875 189.167969 C 232.484375 191.554688 235.035156 194.90625 236.566406 198.332031 C 238.164062 201.765625 238.8125 205.199219 239.078125 208.429688 C 239.3125 211.703125 239.230469 214.597656 238.621094 217.714844 Z M 238.621094 217.714844"/></clipPath><clipPath id="d"><path d="M 101.71875 125 L 273.46875 125 L 273.46875 310.636719 L 101.71875 310.636719 Z M 101.71875 125"/></clipPath><clipPath id="e"><path d="M 124 64.636719 L 273.46875 64.636719 L 273.46875 291 L 124 291 Z M 124 64.636719"/></clipPath><clipPath id="f"><path d="M 165.78125 92.046875 C 165.78125 76.917969 178.042969 64.644531 193.183594 64.644531 C 208.320312 64.644531 220.585938 76.917969 220.585938 92.046875 C 220.585938 107.175781 208.3125 119.449219 193.183594 119.449219 C 178.054688 119.449219 165.78125 107.183594 165.78125 92.046875 Z M 272.027344 191.179688 C 270.644531 185.042969 268.835938 178.863281 265.960938 173.113281 C 263.320312 167.242188 259.582031 161.855469 255.636719 156.886719 C 253.6875 154.359375 251.332031 152.121094 249.144531 149.746094 C 246.769531 147.550781 244.320312 145.398438 241.78125 143.363281 C 231.40625 135.429688 219.050781 129.820312 205.914062 127.230469 C 192.765625 124.660156 179.203125 125.433594 166.644531 128.957031 C 163.453125 129.679688 160.476562 131.050781 157.4375 132.136719 C 154.429688 133.328125 151.605469 134.910156 148.730469 136.3125 C 146 137.960938 143.273438 139.644531 140.664062 141.414062 C 138.207031 143.324219 135.746094 145.214844 133.347656 147.164062 C 132.058594 148.28125 130.820312 149.441406 129.609375 150.617188 C 131.976562 149.042969 134.425781 147.519531 136.882812 146.027344 C 139.769531 144.625 142.585938 143.050781 145.59375 141.851562 C 148.640625 140.765625 151.605469 139.390625 154.796875 138.671875 C 167.34375 135.144531 180.917969 134.363281 194.066406 136.945312 C 207.195312 139.535156 219.558594 145.144531 229.933594 153.078125 C 232.472656 155.109375 234.921875 157.273438 237.300781 159.457031 C 239.484375 161.835938 241.839844 164.070312 243.792969 166.601562 C 247.722656 171.578125 251.472656 176.953125 254.113281 182.828125 C 257 188.578125 258.808594 194.753906 260.179688 200.890625 C 261.238281 207.097656 261.925781 213.335938 261.492188 219.496094 C 261.316406 225.660156 260.078125 231.65625 258.554688 237.457031 C 256.726562 243.179688 254.550781 248.734375 251.5625 253.785156 C 248.171875 259.75 244.003906 265.125 239.339844 269.816406 C 239.746094 269.542969 240.152344 269.300781 240.558594 269.015625 C 249.613281 262.777344 257.621094 254.242188 263.410156 244.0625 C 266.398438 239.011719 268.574219 233.453125 270.402344 227.734375 C 271.925781 221.933594 273.164062 215.9375 273.335938 209.769531 C 273.773438 203.625 273.082031 197.375 272.027344 191.179688 Z M 163.699219 282.386719 C 162.304688 281.460938 160.820312 280.679688 159.472656 279.644531 C 156.828125 277.5 153.933594 275.589844 151.484375 273.039062 C 146.203125 268.40625 141.691406 262.511719 137.648438 256.253906 C 129.855469 243.714844 125.941406 227.824219 127.921875 211.652344 C 128.085938 210.269531 128.359375 208.886719 128.613281 207.503906 C 127.648438 209.730469 126.773438 212.109375 126.09375 214.679688 C 124.652344 220.226562 123.871094 226.546875 124.367188 233.363281 C 124.84375 240.171875 126.621094 247.484375 130.128906 254.546875 C 133.652344 261.648438 138.621094 268.222656 145.144531 274.074219 C 151.648438 279.875 159.703125 284.671875 168.847656 287.660156 C 172.464844 288.867188 176.253906 289.730469 180.167969 290.28125 C 176.101562 288.847656 172.007812 287.078125 167.953125 284.90625 C 166.449219 284.253906 165.121094 283.238281 163.699219 282.386719 Z M 163.699219 282.386719"/></clipPath><linearGradient x1="83.286" gradientTransform="matrix(1.01603 0 0 1.01601 101.72 64.644)" xmlns:xlink="http://www.w3.org/1999/xlink" y1="106.9" x2="121.539" gradientUnits="userSpaceOnUse" y2="187.961" xlink:type="simple" xlink:actuate="onLoad" id="c" xlink:show="other"><stop stop-color="#545454" offset="0"/><stop stop-color="#545454" offset=".063"/><stop stop-color="#545454" offset=".094"/><stop stop-color="#545454" offset=".109"/><stop stop-color="#555" offset=".125"/><stop stop-color="#565656" offset=".141"/><stop stop-color="#575757" offset=".156"/><stop stop-color="#585858" offset=".172"/><stop stop-color="#595959" offset=".188"/><stop stop-color="#5A5A5A" offset=".203"/><stop stop-color="#5B5B5B" offset=".219"/><stop stop-color="#5C5C5C" offset=".234"/><stop stop-color="#5D5D5D" offset=".25"/><stop stop-color="#5E5E5E" offset=".266"/><stop stop-color="#5F5F5F" offset=".281"/><stop stop-color="#606060" offset=".297"/><stop stop-color="#606060" offset=".313"/><stop stop-color="#616161" offset=".328"/><stop stop-color="#626262" offset=".344"/><stop stop-color="#636363" offset=".359"/><stop stop-color="#646464" offset=".36"/><stop stop-color="#656565" offset=".375"/><stop stop-color="#656565" offset=".391"/><stop stop-color="#666" offset=".406"/><stop stop-color="#676767" offset=".422"/><stop stop-color="#686868" offset=".438"/><stop stop-color="#696969" offset=".453"/><stop stop-color="#6A6A6A" offset=".469"/><stop stop-color="#6B6B6B" offset=".484"/><stop stop-color="#6C6C6C" offset=".5"/><stop stop-color="#6D6D6D" offset=".516"/><stop stop-color="#6E6E6E" offset=".531"/><stop stop-color="#6E6E6E" offset=".547"/><stop stop-color="#6F6F6F" offset=".563"/><stop stop-color="#707070" offset=".578"/><stop stop-color="#717171" offset=".594"/><stop stop-color="#727272" offset=".609"/><stop stop-color="#737373" offset=".625"/><stop stop-color="#737373" offset=".64"/><stop stop-color="#737373" offset=".75"/><stop stop-color="#737373" offset="1"/></linearGradient><linearGradient x1="16.246" gradientTransform="matrix(1.01603 0 0 1.01601 101.72 64.644)" xmlns:xlink="http://www.w3.org/1999/xlink" y1="3.111" x2="146.106" gradientUnits="userSpaceOnUse" y2="234.927" xlink:type="simple" xlink:actuate="onLoad" id="g" xlink:show="other"><stop stop-color="#6BCC52" offset="0"/><stop stop-color="#6BCB52" offset=".004"/><stop stop-color="#6ACB52" offset=".008"/><stop stop-color="#6ACB52" offset=".012"/><stop stop-color="#69CA52" offset=".016"/><stop stop-color="#69CA52" offset=".02"/><stop stop-color="#68CA51" offset=".023"/><stop stop-color="#68C951" offset=".027"/><stop stop-color="#67C951" offset=".031"/><stop stop-color="#66C851" offset=".035"/><stop stop-color="#66C851" offset=".039"/><stop stop-color="#65C851" offset=".043"/><stop stop-color="#65C751" offset=".047"/><stop stop-color="#64C750" offset=".051"/><stop stop-color="#64C650" offset=".055"/><stop stop-color="#63C650" offset=".059"/><stop stop-color="#63C650" offset=".063"/><stop stop-color="#62C550" offset=".066"/><stop stop-color="#62C550" offset=".07"/><stop stop-color="#61C550" offset=".074"/><stop stop-color="#60C44F" offset=".078"/><stop stop-color="#60C44F" offset=".082"/><stop stop-color="#5FC34F" offset=".086"/><stop stop-color="#5FC34F" offset=".09"/><stop stop-color="#5EC34F" offset=".094"/><stop stop-color="#5EC24F" offset=".098"/><stop stop-color="#5DC24F" offset=".102"/><stop stop-color="#5DC24F" offset=".105"/><stop stop-color="#5CC14E" offset=".109"/><stop stop-color="#5CC14E" offset=".113"/><stop stop-color="#5BC04E" offset=".117"/><stop stop-color="#5BC04E" offset=".121"/><stop stop-color="#5AC04E" offset=".125"/><stop stop-color="#59BF4E" offset=".129"/><stop stop-color="#59BF4E" offset=".133"/><stop stop-color="#58BE4D" offset=".137"/><stop stop-color="#58BE4D" offset=".141"/><stop stop-color="#57BE4D" offset=".145"/><stop stop-color="#57BD4D" offset=".148"/><stop stop-color="#56BD4D" offset=".152"/><stop stop-color="#56BD4D" offset=".156"/><stop stop-color="#55BC4D" offset=".16"/><stop stop-color="#55BC4C" offset=".164"/><stop stop-color="#54BB4C" offset=".168"/><stop stop-color="#54BB4C" offset=".172"/><stop stop-color="#53BB4C" offset=".176"/><stop stop-color="#52BA4C" offset=".18"/><stop stop-color="#52BA4C" offset=".184"/><stop stop-color="#51B94C" offset=".188"/><stop stop-color="#51B94C" offset=".191"/><stop stop-color="#50B94B" offset=".195"/><stop stop-color="#50B84B" offset=".199"/><stop stop-color="#4FB84B" offset=".203"/><stop stop-color="#4FB84B" offset=".207"/><stop stop-color="#4EB74B" offset=".211"/><stop stop-color="#4EB74B" offset=".215"/><stop stop-color="#4DB64B" offset=".219"/><stop stop-color="#4DB64A" offset=".223"/><stop stop-color="#4CB64A" offset=".227"/><stop stop-color="#4BB54A" offset=".23"/><stop stop-color="#4BB54A" offset=".234"/><stop stop-color="#4AB54A" offset=".238"/><stop stop-color="#4AB44A" offset=".242"/><stop stop-color="#49B44A" offset=".246"/><stop stop-color="#49B349" offset=".25"/><stop stop-color="#48B349" offset=".254"/><stop stop-color="#48B349" offset=".258"/><stop stop-color="#47B249" offset=".262"/><stop stop-color="#47B249" offset=".266"/><stop stop-color="#46B149" offset=".27"/><stop stop-color="#45B149" offset=".273"/><stop stop-color="#45B149" offset=".277"/><stop stop-color="#44B048" offset=".281"/><stop stop-color="#44B048" offset=".285"/><stop stop-color="#43B048" offset=".289"/><stop stop-color="#43AF48" offset=".293"/><stop stop-color="#42AF48" offset=".297"/><stop stop-color="#42AE48" offset=".301"/><stop stop-color="#41AE48" offset=".305"/><stop stop-color="#41AE47" offset=".309"/><stop stop-color="#40AD47" offset=".313"/><stop stop-color="#40AD47" offset=".316"/><stop stop-color="#3FAD47" offset=".32"/><stop stop-color="#3EAC47" offset=".324"/><stop stop-color="#3EAC47" offset=".328"/><stop stop-color="#3DAB47" offset=".332"/><stop stop-color="#3DAB46" offset=".336"/><stop stop-color="#3CAB46" offset=".34"/><stop stop-color="#3CAA46" offset=".344"/><stop stop-color="#3BAA46" offset=".348"/><stop stop-color="#3BA946" offset=".352"/><stop stop-color="#3AA946" offset=".355"/><stop stop-color="#3AA946" offset=".359"/><stop stop-color="#39A846" offset=".363"/><stop stop-color="#39A845" offset=".367"/><stop stop-color="#38A845" offset=".371"/><stop stop-color="#37A745" offset=".375"/><stop stop-color="#37A745" offset=".379"/><stop stop-color="#36A645" offset=".383"/><stop stop-color="#36A645" offset=".387"/><stop stop-color="#35A645" offset=".391"/><stop stop-color="#35A544" offset=".395"/><stop stop-color="#34A544" offset=".398"/><stop stop-color="#34A444" offset=".402"/><stop stop-color="#33A444" offset=".406"/><stop stop-color="#33A444" offset=".41"/><stop stop-color="#32A344" offset=".414"/><stop stop-color="#31A344" offset=".418"/><stop stop-color="#31A343" offset=".422"/><stop stop-color="#30A243" offset=".426"/><stop stop-color="#30A243" offset=".43"/><stop stop-color="#2FA143" offset=".434"/><stop stop-color="#2FA143" offset=".438"/><stop stop-color="#2EA143" offset=".441"/><stop stop-color="#2EA043" offset=".445"/><stop stop-color="#2DA043" offset=".449"/><stop stop-color="#2DA042" offset=".453"/><stop stop-color="#2C9F42" offset=".457"/><stop stop-color="#2C9F42" offset=".461"/><stop stop-color="#2B9E42" offset=".465"/><stop stop-color="#2A9E42" offset=".469"/><stop stop-color="#2A9E42" offset=".473"/><stop stop-color="#299D42" offset=".477"/><stop stop-color="#299D41" offset=".48"/><stop stop-color="#289C41" offset=".484"/><stop stop-color="#289C41" offset=".488"/><stop stop-color="#279C41" offset=".492"/><stop stop-color="#279B41" offset=".496"/><stop stop-color="#269B41" offset=".5"/><stop stop-color="#269B41" offset=".504"/><stop stop-color="#259A40" offset=".508"/><stop stop-color="#259A40" offset=".512"/><stop stop-color="#249940" offset=".516"/><stop stop-color="#239940" offset=".52"/><stop stop-color="#239940" offset=".523"/><stop stop-color="#229840" offset=".527"/><stop stop-color="#229840" offset=".531"/><stop stop-color="#21983F" offset=".535"/><stop stop-color="#21973F" offset=".539"/><stop stop-color="#20973F" offset=".543"/><stop stop-color="#20963F" offset=".547"/><stop stop-color="#1F963F" offset=".551"/><stop stop-color="#1F963F" offset=".555"/><stop stop-color="#1E953F" offset=".559"/><stop stop-color="#1D953F" offset=".563"/><stop stop-color="#1D943E" offset=".566"/><stop stop-color="#1C943E" offset=".57"/><stop stop-color="#1C943E" offset=".574"/><stop stop-color="#1B933E" offset=".578"/><stop stop-color="#1B933E" offset=".582"/><stop stop-color="#1A933E" offset=".586"/><stop stop-color="#1A923E" offset=".59"/><stop stop-color="#19923D" offset=".594"/><stop stop-color="#19913D" offset=".598"/><stop stop-color="#18913D" offset=".602"/><stop stop-color="#18913D" offset=".605"/><stop stop-color="#17903D" offset=".609"/><stop stop-color="#16903D" offset=".613"/><stop stop-color="#168F3D" offset=".617"/><stop stop-color="#158F3C" offset=".621"/><stop stop-color="#158F3C" offset=".625"/><stop stop-color="#148E3C" offset=".629"/><stop stop-color="#148E3C" offset=".633"/><stop stop-color="#138E3C" offset=".637"/><stop stop-color="#138D3C" offset=".641"/><stop stop-color="#128D3C" offset=".645"/><stop stop-color="#128C3C" offset=".648"/><stop stop-color="#118C3B" offset=".652"/><stop stop-color="#118C3B" offset=".656"/><stop stop-color="#108B3B" offset=".66"/><stop stop-color="#0F8B3B" offset=".664"/><stop stop-color="#0F8B3B" offset=".668"/><stop stop-color="#0E8A3B" offset=".672"/><stop stop-color="#0E8A3B" offset=".676"/><stop stop-color="#0D893A" offset=".68"/><stop stop-color="#0D893A" offset=".684"/><stop stop-color="#0C893A" offset=".688"/><stop stop-color="#0C883A" offset=".691"/><stop stop-color="#0B883A" offset=".695"/><stop stop-color="#0B873A" offset=".699"/><stop stop-color="#0A873A" offset=".703"/><stop stop-color="#098739" offset=".707"/><stop stop-color="#098639" offset=".711"/><stop stop-color="#088639" offset=".715"/><stop stop-color="#088639" offset=".719"/><stop stop-color="#078539" offset=".723"/><stop stop-color="#078539" offset=".727"/><stop stop-color="#068439" offset=".73"/><stop stop-color="#068439" offset=".734"/><stop stop-color="#058438" offset=".738"/><stop stop-color="#058338" offset=".742"/><stop stop-color="#048338" offset=".746"/><stop stop-color="#048338" offset=".75"/><stop stop-color="#038238" offset=".754"/><stop stop-color="#028238" offset=".758"/><stop stop-color="#028138" offset=".762"/><stop stop-color="#018137" offset=".766"/><stop stop-color="#018137" offset=".77"/><stop stop-color="#008037" offset=".773"/><stop stop-color="#008037" offset=".781"/><stop stop-color="#008037" offset=".813"/><stop stop-color="#008037" offset=".875"/><stop stop-color="#008037" offset="1"/></linearGradient></defs><g clip-path="url(#a)"><g clip-path="url(#b)"><path fill="url(#c)" d="M 162.527344 184.492188 L 162.527344 248.960938 L 239.3125 248.960938 L 239.3125 184.492188 Z M 162.527344 184.492188"/></g></g><g clip-path="url(#d)"><path fill="#7ED957" d="M 273.347656 209.769531 C 273.175781 215.9375 271.933594 221.933594 270.410156 227.734375 C 268.582031 233.453125 266.410156 239.011719 263.421875 244.0625 C 257.621094 254.253906 249.613281 262.785156 240.570312 269.015625 C 231.4375 275.476562 220.808594 279.257812 210.464844 280.628906 C 200.082031 281.988281 189.828125 280.972656 180.707031 277.925781 C 171.5625 274.9375 163.503906 270.132812 157 264.339844 C 150.488281 258.488281 145.511719 251.925781 141.984375 244.8125 C 138.480469 237.753906 136.703125 230.4375 136.222656 223.628906 C 135.738281 216.800781 136.519531 210.484375 137.953125 204.945312 C 139.425781 199.386719 141.730469 194.671875 144.078125 190.710938 C 149.054688 182.878906 154.632812 178.296875 158.78125 176.058594 C 162.925781 173.792969 165.515625 173.488281 166.144531 174.425781 C 166.910156 175.511719 165.667969 177.707031 163.382812 181.160156 C 161.078125 184.574219 157.917969 189.59375 155.476562 196.371094 C 154.378906 199.804688 153.34375 203.613281 152.957031 207.859375 C 152.601562 212.089844 152.722656 216.671875 153.679688 221.382812 C 154.625 226.089844 156.421875 230.90625 159.269531 235.40625 C 162.0625 239.855469 166.074219 244.246094 170.757812 247.78125 C 180.097656 254.914062 193.417969 258.945312 206.757812 256.355469 C 213.359375 255.097656 219.914062 252.496094 225.605469 248.085938 C 231.476562 243.675781 236.476562 237.914062 240.074219 231.160156 C 241.953125 227.824219 243.210938 224.136719 244.351562 220.410156 C 245.195312 216.597656 245.976562 212.699219 245.964844 208.703125 C 246.210938 204.722656 245.601562 200.71875 244.910156 196.746094 C 243.902344 192.835938 242.765625 188.902344 240.824219 185.265625 C 237.226562 178 231.519531 170.96875 224.597656 165.746094 C 217.628906 160.515625 209.359375 156.796875 200.558594 155.027344 C 191.738281 153.292969 182.667969 153.820312 174.253906 156.066406 C 172.101562 156.472656 170.140625 157.46875 168.066406 158.117188 C 166.035156 158.878906 164.15625 159.964844 162.171875 160.828125 C 160.324219 161.957031 158.476562 163.042969 156.65625 164.203125 C 154.898438 165.535156 153.152344 166.855469 151.414062 168.175781 C 137.960938 179.363281 129.832031 195.507812 127.921875 211.640625 C 125.941406 227.816406 129.855469 243.707031 137.648438 256.242188 C 141.691406 262.492188 146.191406 268.386719 151.484375 273.027344 C 153.933594 275.578125 156.828125 277.488281 159.472656 279.632812 C 160.820312 280.667969 162.304688 281.453125 163.699219 282.375 C 165.121094 283.238281 166.449219 284.246094 167.945312 284.90625 C 179.464844 291.09375 191.34375 294.109375 201.972656 294.953125 C 212.628906 295.839844 221.988281 294.566406 229.558594 293.003906 C 244.664062 289.4375 252.773438 284.925781 253.941406 286.695312 C 254.488281 287.488281 253.097656 289.457031 249.785156 292.585938 C 248.179688 294.242188 245.882812 295.816406 243.101562 297.65625 C 240.386719 299.636719 236.921875 301.292969 232.96875 303.195312 C 224.996094 306.660156 214.5 309.890625 201.808594 310.507812 C 189.179688 311.148438 174.375 309.148438 159.359375 302.738281 C 157.429688 302.054688 155.660156 300.988281 153.78125 300.066406 C 151.941406 299.070312 150 298.195312 148.191406 297.046875 C 144.636719 294.679688 140.804688 292.464844 137.421875 289.5 C 130.261719 284.03125 123.960938 277.019531 118.210938 269.136719 C 106.789062 253.113281 100.132812 231.515625 102.042969 209.019531 C 102.980469 197.804688 106.015625 186.433594 111.28125 175.796875 C 116.523438 165.167969 124 155.261719 133.347656 147.15625 C 135.738281 145.203125 138.195312 143.3125 140.664062 141.402344 C 143.265625 139.636719 146 137.949219 148.730469 136.304688 C 151.617188 134.902344 154.429688 133.328125 157.4375 132.128906 C 160.488281 131.039062 163.453125 129.667969 166.644531 128.949219 C 179.191406 125.421875 192.765625 124.640625 205.914062 127.21875 C 219.039062 129.8125 231.40625 135.417969 241.78125 143.355469 C 244.320312 145.386719 246.769531 147.550781 249.144531 149.734375 C 251.332031 152.113281 253.6875 154.347656 255.636719 156.878906 C 259.570312 161.855469 263.320312 167.230469 265.960938 173.101562 C 268.847656 178.855469 270.65625 185.03125 272.027344 191.167969 C 273.082031 197.375 273.773438 203.625 273.347656 209.769531 Z M 273.347656 209.769531"/></g><g clip-path="url(#e)"><g clip-path="url(#f)"><path fill="url(#g)" d="M 123.871094 64.644531 L 123.871094 290.28125 L 273.46875 290.28125 L 273.46875 64.644531 Z M 123.871094 64.644531"/></g></g></svg>